<?xml version="1.0" encoding="UTF-8" standalone="no"?>
<svg
   xmlns:dc="http://purl.org/dc/elements/1.1/"
   xmlns:cc="http://creativecommons.org/ns#"
   xmlns:rdf="http://www.w3.org/1999/02/22-rdf-syntax-ns#"
   xmlns:svg="http://www.w3.org/2000/svg"
   xmlns="http://www.w3.org/2000/svg"
   xmlns:sodipodi="http://sodipodi.sourceforge.net/DTD/sodipodi-0.dtd"
   xmlns:inkscape="http://www.inkscape.org/namespaces/inkscape"
   version="1.2"
   width="9.6886654"
   height="15.641341"
   viewBox="0 0 1.556 2.5119999"
   id="svg3019"
   inkscape:version="0.48.5 r10040"
   sodipodi:docname="fgtr.svg">
  <metadata
     id="metadata3113">
    <rdf:RDF>
      <cc:Work
         rdf:about="">
        <dc:format>image/svg+xml</dc:format>
        <dc:type
           rdf:resource="http://purl.org/dc/dcmitype/StillImage" />
        <dc:title></dc:title>
      </cc:Work>
    </rdf:RDF>
  </metadata>
  <defs
     id="defs3111" />
  <sodipodi:namedview
     pagecolor="#ffffff"
     bordercolor="#666666"
     borderopacity="1"
     objecttolerance="10"
     gridtolerance="10"
     guidetolerance="10"
     inkscape:pageopacity="0"
     inkscape:pageshadow="2"
     inkscape:window-width="1920"
     inkscape:window-height="1018"
     id="namedview3109"
     showgrid="false"
     fit-margin-top="0"
     fit-margin-left="0"
     fit-margin-right="0"
     fit-margin-bottom="0"
     inkscape:zoom="5.6568542"
     inkscape:cx="126.02096"
     inkscape:cy="-27.633142"
     inkscape:window-x="-8"
     inkscape:window-y="-8"
     inkscape:window-maximized="1"
     inkscape:current-layer="svg3019" />
  <!-- Page: 1/1 -->
  <text
     transform="translate(-16.4478,-1)"
     font-size="2.2001"
     id="text3021"
     style="font-size:2.20009995px;text-anchor:start;fill:currentColor;font-family:Century Schoolbook L">
    <tspan
       id="tspan3023" />
  </text>
  <path
     transform="matrix(0.004,0,0,-0.004,0.108,1.86)"
     d="m 190,41 -1,-66 c 0,-4 -1,-7 -1,-11 0,-22 1,-44 4,-66 44,37 87,82 87,139 0,33 -11,67 -40,67 -30,0 -48,-30 -49,-63 z m -43,-179 -2,106 c -27,-34 -66,-62 -98,-93 -13,-13 -19,-38 -39,-38 -13,0 -23,11 -23,25 l -12,595 c 8,5 18,8 27,8 9,0 19,-3 27,-8 L 20,112 c 17,21 43,34 70,34 20,0 38,-8 52,-21 l -7,332 c 8,5 18,8 27,8 9,0 19,-3 27,-8 l -6,-345 c 24,21 55,34 87,34 53,0 92,-47 92,-101 0,-80 -86,-118 -147,-170 -15,-13 -23,-38 -44,-38 -13,0 -24,11 -24,25 z M 17,-26 v -10 c 0,-23 1,-45 4,-68 39,38 71,86 71,141 0,32 -6,67 -33,67 C 31,104 20,72 19,41 z"
     id="path3071"
     inkscape:connector-curvature="0"
     style="fill:currentColor" />
</svg>
