<?xml version="1.0" encoding="UTF-8" standalone="no"?>
<svg
   xmlns:dc="http://purl.org/dc/elements/1.1/"
   xmlns:cc="http://creativecommons.org/ns#"
   xmlns:rdf="http://www.w3.org/1999/02/22-rdf-syntax-ns#"
   xmlns:svg="http://www.w3.org/2000/svg"
   xmlns="http://www.w3.org/2000/svg"
   xmlns:sodipodi="http://sodipodi.sourceforge.net/DTD/sodipodi-0.dtd"
   xmlns:inkscape="http://www.inkscape.org/namespaces/inkscape"
   version="1.2"
   width="6.7311921"
   height="6.7247806"
   viewBox="0 0 1.0810297 1.08"
   id="svg3019"
   inkscape:version="0.48.5 r10040"
   sodipodi:docname="dièse.svg">
  <metadata
     id="metadata3113">
    <rdf:RDF>
      <cc:Work
         rdf:about="">
        <dc:format>image/svg+xml</dc:format>
        <dc:type
           rdf:resource="http://purl.org/dc/dcmitype/StillImage" />
        <dc:title></dc:title>
      </cc:Work>
    </rdf:RDF>
  </metadata>
  <defs
     id="defs3111" />
  <sodipodi:namedview
     pagecolor="#ffffff"
     bordercolor="#666666"
     borderopacity="1"
     objecttolerance="10"
     gridtolerance="10"
     guidetolerance="10"
     inkscape:pageopacity="0"
     inkscape:pageshadow="2"
     inkscape:window-width="1920"
     inkscape:window-height="1018"
     id="namedview3109"
     showgrid="false"
     fit-margin-top="0"
     fit-margin-left="0"
     fit-margin-right="0"
     fit-margin-bottom="0"
     inkscape:zoom="5.6568542"
     inkscape:cx="18.131707"
     inkscape:cy="-39.414009"
     inkscape:window-x="-8"
     inkscape:window-y="-8"
     inkscape:window-maximized="1"
     inkscape:current-layer="svg3019" />
  <!-- Page: 1/1 -->
  <text
     transform="translate(-35.000385,-2.32)"
     font-size="2.2001"
     id="text3021"
     style="font-size:2.20009995px;text-anchor:start;fill:currentColor;font-family:Century Schoolbook L">
    <tspan
       id="tspan3023" />
  </text>
  <path
     transform="matrix(0.004,0,0,-0.004,0.04051484,0.53999996)"
     d="m 152,0 c 23,-23 56,-28 89,-28 6,0 10,-4 10,-10 l 9,-87 c 1,-5 -4,-10 -9,-10 h -1 l -87,9 c -5,1 -10,5 -10,10 0,33 -5,66 -28,89 -23,-23 -28,-56 -28,-89 0,-5 -4,-9 -9,-10 l -88,-9 h -1 c -5,0 -10,5 -9,10 l 9,87 c 0,6 4,10 10,10 33,0 66,5 89,28 C 75,23 42,28 9,28 3,28 -1,32 -1,38 l -9,87 c -1,5 4,10 9,10 h 1 l 88,-9 c 5,-1 9,-5 9,-10 0,-33 5,-66 28,-89 23,23 28,56 28,89 0,5 5,9 10,10 l 87,9 h 1 c 5,0 10,-5 9,-10 l -9,-87 c 0,-6 -4,-10 -10,-10 -33,0 -66,-5 -89,-28 z"
     id="path3063"
     inkscape:connector-curvature="0"
     style="fill:currentColor" />
</svg>
